<svg xmlns="http://www.w3.org/2000/svg" viewBox="0 0 512 128">
  <path fill="#0769ad" d="M108 31c-6-14-14-23-21-31 4 17 5 34 1 53-2 13-8 25-17 35 12-5 21-12 28-22 8-11 12-23 12-35-1-11-3-21-7-30 11 12 18 25 21 40 3 16 1 31-6 45 10-10 17-21 21-33 4-14 4-28-1-42zm61 54c-3-8-7-15-11-21-5-8-11-15-17-21 7 18 8 36 1 55-4 11-10 20-19 28 12-4 22-11 30-20 9-11 15-23 16-36zm54 10c-2-5-4-10-7-15-3-5-6-9-10-14 4 12 5 24 1 37-3 8-7 15-13 21 8-3 15-7 21-13 6-7 10-15 12-23zM95 78c-20-10-44-8-61 4C17 92 10 111 18 129c10 21 33 29 58 22 27-7 43-30 35-54-4-12-12-22-23-29h0z"/>
  <text x="160" y="92" font-size="64" font-family="Arial Black, Helvetica, Arial" fill="#0769ad">jQuery</text>
</svg>
